<svg width="23" height="25" viewBox="0 0 23 25" fill="none" xmlns="http://www.w3.org/2000/svg">
<path d="M11.6667 0.75C11.2467 0.75 10.844 0.916815 10.5471 1.21375C10.2501 1.51068 10.0833 1.91341 10.0833 2.33333V22.3333C10.0833 22.7533 10.2501 23.156 10.5471 23.4529C10.844 23.7499 11.2467 23.9167 11.6667 23.9167C12.0866 23.9167 12.4893 23.7499 12.7863 23.4529C13.0832 23.156 13.25 22.7533 13.25 22.3333V2.33333C13.25 1.91341 13.0832 1.51068 12.7863 1.21375C12.4893 0.916815 12.0866 0.75 11.6667 0.75ZM21 11.4167C20.5801 11.4167 20.1773 11.5835 19.8804 11.8804C19.5835 12.1773 19.4167 12.5801 19.4167 13V22.3333C19.4167 22.7533 19.5835 23.156 19.8804 23.4529C20.1773 23.7499 20.5801 23.9167 21 23.9167C21.4199 23.9167 21.8227 23.7499 22.1196 23.4529C22.4165 23.156 22.5833 22.7533 22.5833 22.3333V13C22.5833 12.5801 22.4165 12.1773 22.1196 11.8804C21.8227 11.5835 21.4199 11.4167 21 11.4167ZM2.33333 6.08333C1.91341 6.08333 1.51068 6.25015 1.21375 6.54708C0.916815 6.84401 0.75 7.24674 0.75 7.66667V22.3333C0.75 22.7533 0.916815 23.156 1.21375 23.4529C1.51068 23.7499 1.91341 23.9167 2.33333 23.9167C2.75326 23.9167 3.15599 23.7499 3.45292 23.4529C3.74985 23.156 3.91667 22.7533 3.91667 22.3333V7.66667C3.91667 7.24674 3.74985 6.84401 3.45292 6.54708C3.15599 6.25015 2.75326 6.08333 2.33333 6.08333Z" fill="black" stroke="black" stroke-width="0.5"/>
</svg>
