<svg width="26" height="27" viewBox="0 0 26 27" fill="none" xmlns="http://www.w3.org/2000/svg">
<path d="M23 26.5001H17C16.338 26.4968 15.704 26.2323 15.2359 25.7642C14.7677 25.2961 14.5033 24.6621 14.5 24.0001V18.5001H11.5V24.0001C11.4967 24.6621 11.2323 25.2961 10.7641 25.7642C10.296 26.2323 9.66203 26.4968 9 26.5001H3C2.33797 26.4968 1.70399 26.2323 1.23586 25.7642C0.767733 25.2961 0.503286 24.6621 0.5 24.0001V12.4376C0.500825 12.0887 0.574653 11.7439 0.716738 11.4253C0.858823 11.1066 1.06602 10.8213 1.325 10.5876L11.3125 1.50006C11.7734 1.07843 12.3754 0.844604 13 0.844604C13.6246 0.844604 14.2266 1.07843 14.6875 1.50006L24.6875 10.5876C24.9424 10.8238 25.1461 11.11 25.2858 11.4282C25.4256 11.7464 25.4985 12.09 25.5 12.4376V24.0001C25.4967 24.6621 25.2323 25.2961 24.7641 25.7642C24.296 26.2323 23.662 26.4968 23 26.5001V26.5001ZM17.5 23.5001H22.5V12.6626L13 4.02506L3.5 12.6626V23.5001H8.5V18.0001C8.50329 17.338 8.76773 16.7041 9.23586 16.2359C9.70399 15.7678 10.338 15.5033 11 15.5001H15C15.662 15.5033 16.296 15.7678 16.7641 16.2359C17.2323 16.7041 17.4967 17.338 17.5 18.0001V23.5001Z" fill="white"/>
</svg>
